<svg width="30" height="30" viewBox="0 0 30 30" fill="none" xmlns="http://www.w3.org/2000/svg">
<path d="M0 26.7857C0 28.5603 1.11979 30 2.5 30H27.5C28.8802 30 30 28.5603 30 26.7857V15H0V26.7857ZM10 22.2321C10 21.7902 10.2812 21.4286 10.625 21.4286H17.7083C18.0521 21.4286 18.3333 21.7902 18.3333 22.2321V24.9107C18.3333 25.3527 18.0521 25.7143 17.7083 25.7143H10.625C10.2812 25.7143 10 25.3527 10 24.9107V22.2321ZM3.33333 22.2321C3.33333 21.7902 3.61458 21.4286 3.95833 21.4286H7.70833C8.05208 21.4286 8.33333 21.7902 8.33333 22.2321V24.9107C8.33333 25.3527 8.05208 25.7143 7.70833 25.7143H3.95833C3.61458 25.7143 3.33333 25.3527 3.33333 24.9107V22.2321ZM30 3.21429V6.42857H0V3.21429C0 1.43973 1.11979 0 2.5 0H27.5C28.8802 0 30 1.43973 30 3.21429Z" fill="black"/>
</svg>
