<svg width="30" height="30" viewBox="0 0 30 30" fill="none" xmlns="http://www.w3.org/2000/svg">
<path d="M29.9993 8.31008C29.9993 8.00808 29.994 7.70742 29.9859 7.40475C29.9779 6.74466 29.9201 6.08611 29.8132 5.4347C29.7015 4.78256 29.4934 4.15065 29.1957 3.55974C28.5913 2.373 27.6263 1.40831 26.4394 0.804223C25.8486 0.506164 25.2166 0.298066 24.5643 0.186826C23.9126 0.0792638 23.2538 0.0212863 22.5934 0.0133925C22.2914 0.00535695 21.9907 0.00200888 21.688 0H8.31131C8.00929 0 7.7086 0.00535695 7.40591 0.0133925C7.24184 0.0180799 7.0771 0.0234369 6.91236 0.0314725C6.4171 0.0513597 5.92363 0.103253 5.43506 0.186826C4.94835 0.271754 4.47216 0.408697 4.01469 0.595299C3.86022 0.66003 3.7082 0.729671 3.55864 0.804223C3.11728 1.03011 2.70394 1.307 2.32711 1.6292C2.20121 1.73701 2.08 1.84884 1.96348 1.96402C1.49444 2.43182 1.1023 2.97083 0.801598 3.56108C0.503779 4.15193 0.29568 4.78385 0.18416 5.43604C0.0781452 6.08708 0.0212856 6.74517 0.0140631 7.40475C0.00535738 7.70675 0.00200902 8.00741 0 8.31008V21.6913C0 21.9933 0.00535738 22.2939 0.0140631 22.5959C0.0220459 23.256 0.0798015 23.9146 0.186839 24.566C0.298213 25.2182 0.506319 25.8501 0.804277 26.4409C1.40904 27.6267 2.37305 28.5912 3.55864 29.1964C4.14957 29.494 4.78154 29.7019 5.43373 29.8132C6.08534 29.9207 6.74418 29.9787 7.40457 29.9866C7.70592 29.9946 8.00728 29.998 8.30997 30H21.6894C21.9914 30 22.2921 29.9946 22.5948 29.9866C23.2554 29.9783 23.9144 29.9204 24.5663 29.8132C25.2184 29.7018 25.8504 29.4939 26.4414 29.1964C27.6273 28.5913 28.5914 27.6266 29.1957 26.4403C29.4937 25.8495 29.7018 25.2175 29.8132 24.5653C29.9208 23.914 29.9787 23.2554 29.9866 22.5953C29.9946 22.2939 29.998 21.9926 30 21.6906V9.38484C29.9993 9.02658 29.9993 8.66833 29.9993 8.31008ZM25.3197 24.4481C23.9803 21.8413 21.4871 22.4881 20.2094 23.1444C20.0942 23.2113 19.9763 23.2783 19.8578 23.3452L19.8297 23.362C17.1845 24.7682 13.6332 24.8713 10.0625 23.3365C7.15582 22.0763 4.69801 19.9669 3.01152 17.2851C3.83203 17.8921 4.71069 18.4163 5.63463 18.85C9.4089 20.6178 13.2019 20.4899 15.8806 18.85C12.0635 15.9137 8.87584 12.0868 6.43221 8.99176C5.96668 8.44869 5.54608 7.86866 5.17456 7.25743C8.10103 9.93594 12.7218 13.2988 14.3812 14.2296C10.8608 10.5138 7.75883 5.93023 7.90415 6.07754C13.4484 11.6636 18.564 14.8222 18.564 14.8222C18.7569 14.928 18.8988 15.0131 19.0147 15.0901C19.1219 14.8167 19.2148 14.538 19.2933 14.255C20.1786 11.0187 19.1821 7.31903 16.9287 4.26419C22.0711 7.34984 25.1107 13.2151 23.8651 18.1757C23.8357 18.2916 23.8015 18.4034 23.7687 18.5166C26.3483 21.6906 25.6465 25.0903 25.3176 24.4488L25.3197 24.4481Z" fill="black"/>
</svg>
