<svg width="27" height="25" viewBox="0 0 27 25" fill="none" xmlns="http://www.w3.org/2000/svg">
<g clip-path="url(#clip0_7_134)">
<path d="M25.8965 1.20121L20.5645 0.0293366C19.9851 -0.0976165 19.3904 0.190469 19.1546 0.708048L16.6936 6.1768C16.4783 6.65531 16.6219 7.21684 17.0474 7.54398L20.1543 9.96586C18.3086 13.711 15.0838 16.8262 11.0694 18.6182L8.52641 15.6592C8.17778 15.2539 7.59331 15.1172 7.09087 15.3223L1.34868 17.6661C0.800095 17.8955 0.497604 18.462 0.630905 19.0137L1.86137 24.0918C1.98955 24.6192 2.48173 25 3.06108 25C16.1912 25 26.8501 14.8682 26.8501 2.34379C26.8501 1.79691 26.4554 1.32328 25.8965 1.20121Z" fill="white"/>
</g>
<defs>
<clipPath id="clip0_7_134">
<rect width="26.25" height="25" fill="white" transform="translate(0.600098)"/>
</clipPath>
</defs>
</svg>
