<svg width="30" height="30" viewBox="0 0 30 30" fill="none" xmlns="http://www.w3.org/2000/svg">
<path d="M19.0464 11.2742V17.4073H17.3347V24.6956H12.6714V17.4133H10.9597V11.2742C10.9597 11.0081 11.0565 10.7782 11.2379 10.5907C11.4254 10.4032 11.6552 10.3065 11.9214 10.3065H18.0847C18.3327 10.3065 18.5565 10.4032 18.756 10.5907C18.9435 10.7843 19.0464 11.0081 19.0464 11.2742ZM12.9073 7.42137C12.9073 6.0121 13.6028 5.30444 14.994 5.30444C16.3851 5.30444 17.0806 6.0121 17.0806 7.42137C17.0806 8.8125 16.3851 9.50806 14.994 9.50806C13.6028 9.50806 12.9073 8.8125 12.9073 7.42137ZM14.9758 0C23.5524 0 30 6.65927 30 15C30 23.8972 22.8327 30 14.9758 30C6.87097 30 0 23.377 0 15C0 6.96169 6.33266 0 14.9758 0ZM15.0242 2.70363C7.875 2.70363 2.70363 8.625 2.70363 15C2.70363 21.6411 8.21976 27.2661 15.0242 27.2661C21.2661 27.2661 27.2903 22.3609 27.2903 15C27.2964 8.11693 21.8347 2.70363 15.0242 2.70363Z" fill="black"/>
</svg>
