<svg width="20" height="21" viewBox="0 0 20 21" fill="none" xmlns="http://www.w3.org/2000/svg">
<path d="M17.4002 2.17077H1.02354V0.00927734H17.4002V2.17077ZM12.9887 10.8167H11.259V12.6432C10.6141 13.6699 10.2354 14.8912 10.2354 16.2205C10.2354 16.5879 10.2764 16.9446 10.3275 17.3012H1.02354V10.8167H0V8.65525L1.02354 3.25152H17.4002L18.4237 8.65525V10.1143C17.7789 9.87649 17.0931 9.73599 16.3767 9.73599C15.1177 9.73599 13.9611 10.1359 12.9887 10.8167ZM9.21187 10.8167H3.07062V15.1397H9.21187V10.8167ZM16.3357 8.65525L15.7216 5.41301H2.70215L2.08802 8.65525H16.3357ZM20 13.9293L18.5466 12.4054L16.3767 14.6966L14.2068 12.4054L12.7636 13.9293L14.9335 16.2205L12.7636 18.5117L14.2068 20.0463L16.3767 17.7443L18.5466 20.0463L20 18.5117L17.8199 16.2205L20 13.9293Z" fill="white"/>
</svg>
