<svg width="25" height="25" viewBox="0 0 25 25" fill="none" xmlns="http://www.w3.org/2000/svg">
<path d="M21.8625 23.989L14.1625 16.2747C13.475 16.8257 12.6844 17.2619 11.7906 17.5834C10.8969 17.9048 9.94584 18.0655 8.9375 18.0655C6.43959 18.0655 4.32575 17.199 2.596 15.4661C0.865334 13.7322 0 11.614 0 9.11146C0 6.60892 0.865334 4.49071 2.596 2.75684C4.32575 1.02389 6.43959 0.15741 8.9375 0.15741C11.4354 0.15741 13.5497 1.02389 15.2804 2.75684C17.0101 4.49071 17.875 6.60892 17.875 9.11146C17.875 10.1217 17.7146 11.0745 17.3938 11.9699C17.0729 12.8653 16.6375 13.6574 16.0875 14.3461L23.8219 22.0948C24.074 22.3474 24.2 22.6573 24.2 23.0247C24.2 23.392 24.0625 23.7134 23.7875 23.989C23.5354 24.2415 23.2146 24.3678 22.825 24.3678C22.4354 24.3678 22.1146 24.2415 21.8625 23.989ZM8.9375 15.3104C10.6563 15.3104 12.1174 14.708 13.321 13.5031C14.5237 12.2973 15.125 10.8334 15.125 9.11146C15.125 7.38953 14.5237 5.92565 13.321 4.71984C12.1174 3.51495 10.6563 2.9125 8.9375 2.9125C7.21875 2.9125 5.75759 3.51495 4.554 4.71984C3.35133 5.92565 2.75 7.38953 2.75 9.11146C2.75 10.8334 3.35133 12.2973 4.554 13.5031C5.75759 14.708 7.21875 15.3104 8.9375 15.3104Z" fill="#F4F6F8"/>
<path d="M21.8625 23.989L14.1625 16.2747C13.475 16.8257 12.6844 17.2619 11.7906 17.5834C10.8969 17.9048 9.94584 18.0655 8.9375 18.0655C6.43959 18.0655 4.32575 17.199 2.596 15.4661C0.865334 13.7322 0 11.614 0 9.11146C0 6.60892 0.865334 4.49071 2.596 2.75684C4.32575 1.02389 6.43959 0.15741 8.9375 0.15741C11.4354 0.15741 13.5497 1.02389 15.2804 2.75684C17.0101 4.49071 17.875 6.60892 17.875 9.11146C17.875 10.1217 17.7146 11.0745 17.3938 11.9699C17.0729 12.8653 16.6375 13.6574 16.0875 14.3461L23.8219 22.0948C24.074 22.3474 24.2 22.6573 24.2 23.0247C24.2 23.392 24.0625 23.7134 23.7875 23.989C23.5354 24.2415 23.2146 24.3678 22.825 24.3678C22.4354 24.3678 22.1146 24.2415 21.8625 23.989ZM8.9375 15.3104C10.6563 15.3104 12.1174 14.708 13.321 13.5031C14.5237 12.2973 15.125 10.8334 15.125 9.11146C15.125 7.38953 14.5237 5.92565 13.321 4.71984C12.1174 3.51495 10.6563 2.9125 8.9375 2.9125C7.21875 2.9125 5.75759 3.51495 4.554 4.71984C3.35133 5.92565 2.75 7.38953 2.75 9.11146C2.75 10.8334 3.35133 12.2973 4.554 13.5031C5.75759 14.708 7.21875 15.3104 8.9375 15.3104Z" fill="black" fill-opacity="0.2"/>
</svg>
