<svg width="38" height="38" viewBox="0 0 38 38" fill="none" xmlns="http://www.w3.org/2000/svg">
<path d="M3.45455 14.2621H0V33.6789C0 35.6383 1.53727 37.2093 3.45455 37.2093H27.6364C29.5536 37.2093 31.0909 35.6383 31.0909 33.6789H3.45455V14.2621ZM29.3636 7.20142V3.67108C29.3636 1.71175 27.8264 0.140747 25.9091 0.140747H19C17.0827 0.140747 15.5455 1.71175 15.5455 3.67108V7.20142H6.90909V26.6183C6.90909 28.5776 8.44636 30.1486 10.3636 30.1486H34.5455C36.4627 30.1486 38 28.5776 38 26.6183V7.20142H29.3636ZM19 3.67108H25.9091V7.20142H19V3.67108ZM34.5455 26.6183H10.3636V10.7318H34.5455V26.6183ZM19 24.8531L28.5 17.7924L19 12.4969V24.8531Z" fill="#FF0000"/>
</svg>
