<svg width="34" height="36" viewBox="0 0 34 36" fill="none" xmlns="http://www.w3.org/2000/svg">
<path d="M27.6875 13C30.8237 13 33.375 10.2525 33.375 6.875C33.375 3.4975 30.8237 0.75 27.6875 0.75C24.5513 0.75 22 3.4975 22 6.875C22 10.2525 24.5513 13 27.6875 13ZM27.6875 16.5C28.5 16.5 29.3125 16.3775 30.125 16.1325V27C30.125 31.83 26.485 35.75 22 35.75H9C4.515 35.75 0.875 31.83 0.875 27V13C0.875 8.17 4.515 4.25 9 4.25H19.0912C18.7134 5.68151 18.6491 7.18791 18.9035 8.65071C19.1578 10.1135 19.7238 11.4928 20.557 12.6801C21.3902 13.8674 22.4678 14.8304 23.7051 15.4932C24.9424 16.156 26.3056 16.5007 27.6875 16.5Z" fill="#F4F6F8"/>
<path d="M27.6875 13C30.8237 13 33.375 10.2525 33.375 6.875C33.375 3.4975 30.8237 0.75 27.6875 0.75C24.5513 0.75 22 3.4975 22 6.875C22 10.2525 24.5513 13 27.6875 13ZM27.6875 16.5C28.5 16.5 29.3125 16.3775 30.125 16.1325V27C30.125 31.83 26.485 35.75 22 35.75H9C4.515 35.75 0.875 31.83 0.875 27V13C0.875 8.17 4.515 4.25 9 4.25H19.0912C18.7134 5.68151 18.6491 7.18791 18.9035 8.65071C19.1578 10.1135 19.7238 11.4928 20.557 12.6801C21.3902 13.8674 22.4678 14.8304 23.7051 15.4932C24.9424 16.156 26.3056 16.5007 27.6875 16.5Z" fill="black" fill-opacity="0.2"/>
</svg>
