<svg width="30" height="30" viewBox="0 0 30 30" fill="none" xmlns="http://www.w3.org/2000/svg">
<path d="M29.2961 8.75H25.7881L24.8131 5.5C23.8111 2.15859 21.4199 0 18.7205 0H11.2791C8.58027 0 6.18847 2.15859 5.18593 5.5L4.21093 8.75H0.703499C0.245881 8.75 -0.0898617 9.32344 0.0214666 9.91484L0.37303 11.7898C0.450959 12.207 0.73221 12.5 1.05506 12.5H2.23104C1.44412 13.4164 0.937288 14.7484 0.937288 16.25V20C0.937288 21.2594 1.29823 22.3961 1.87479 23.2758V27.5C1.87479 28.8805 2.71444 30 3.74979 30H5.62479C6.66015 30 7.4998 28.8805 7.4998 27.5V25H22.4998V27.5C22.4998 28.8805 23.3395 30 24.3748 30H26.2498C27.2852 30 28.1248 28.8805 28.1248 27.5V23.2758C28.7014 22.3969 29.0623 21.2602 29.0623 20V16.25C29.0623 14.7484 28.5555 13.4164 27.7692 12.5H28.9451C29.268 12.5 29.5492 12.207 29.6272 11.7898L29.9787 9.91484C30.0895 9.32344 29.7537 8.75 29.2961 8.75ZM8.66757 7.35703C9.09472 5.93359 10.1289 5 11.2791 5H18.7205C19.8707 5 20.9049 5.93359 21.332 7.35703L22.4998 11.25H7.4998L8.66757 7.35703ZM5.62479 19.9844C4.49979 19.9844 3.74979 18.9875 3.74979 17.4922C3.74979 15.9969 4.49979 15 5.62479 15C6.7498 15 8.4373 17.243 8.4373 18.7383C8.4373 20.2336 6.7498 19.9844 5.62479 19.9844ZM24.3748 19.9844C23.2498 19.9844 21.5623 20.2336 21.5623 18.7383C21.5623 17.243 23.2498 15 24.3748 15C25.4998 15 26.2498 15.9969 26.2498 17.4922C26.2498 18.9875 25.4998 19.9844 24.3748 19.9844Z" fill="black"/>
</svg>
